<svg id="visual" viewBox="0 0 450 900" width="450" height="900" xmlns="http://www.w3.org/2000/svg" xmlns:xlink="http://www.w3.org/1999/xlink" version="1.1"><rect x="0" y="0" width="450" height="900" fill="#001220"></rect><defs><linearGradient id="grad1_0" x1="0%" y1="100%" x2="100%" y2="0%"><stop offset="30%" stop-color="#fbae3c" stop-opacity="1"></stop><stop offset="70%" stop-color="#fbae3c" stop-opacity="1"></stop></linearGradient></defs><defs><linearGradient id="grad1_1" x1="0%" y1="100%" x2="100%" y2="0%"><stop offset="30%" stop-color="#fbae3c" stop-opacity="1"></stop><stop offset="70%" stop-color="#f48350" stop-opacity="1"></stop></linearGradient></defs><defs><linearGradient id="grad1_2" x1="0%" y1="100%" x2="100%" y2="0%"><stop offset="30%" stop-color="#d96162" stop-opacity="1"></stop><stop offset="70%" stop-color="#f48350" stop-opacity="1"></stop></linearGradient></defs><defs><linearGradient id="grad1_3" x1="0%" y1="100%" x2="100%" y2="0%"><stop offset="30%" stop-color="#d96162" stop-opacity="1"></stop><stop offset="70%" stop-color="#af4b6d" stop-opacity="1"></stop></linearGradient></defs><defs><linearGradient id="grad1_4" x1="0%" y1="100%" x2="100%" y2="0%"><stop offset="30%" stop-color="#7c3e6b" stop-opacity="1"></stop><stop offset="70%" stop-color="#af4b6d" stop-opacity="1"></stop></linearGradient></defs><defs><linearGradient id="grad1_5" x1="0%" y1="100%" x2="100%" y2="0%"><stop offset="30%" stop-color="#7c3e6b" stop-opacity="1"></stop><stop offset="70%" stop-color="#49335c" stop-opacity="1"></stop></linearGradient></defs><defs><linearGradient id="grad1_6" x1="0%" y1="100%" x2="100%" y2="0%"><stop offset="30%" stop-color="#1d2540" stop-opacity="1"></stop><stop offset="70%" stop-color="#49335c" stop-opacity="1"></stop></linearGradient></defs><defs><linearGradient id="grad1_7" x1="0%" y1="100%" x2="100%" y2="0%"><stop offset="30%" stop-color="#1d2540" stop-opacity="1"></stop><stop offset="70%" stop-color="#001220" stop-opacity="1"></stop></linearGradient></defs><defs><linearGradient id="grad2_0" x1="0%" y1="100%" x2="100%" y2="0%"><stop offset="30%" stop-color="#fbae3c" stop-opacity="1"></stop><stop offset="70%" stop-color="#fbae3c" stop-opacity="1"></stop></linearGradient></defs><defs><linearGradient id="grad2_1" x1="0%" y1="100%" x2="100%" y2="0%"><stop offset="30%" stop-color="#f48350" stop-opacity="1"></stop><stop offset="70%" stop-color="#fbae3c" stop-opacity="1"></stop></linearGradient></defs><defs><linearGradient id="grad2_2" x1="0%" y1="100%" x2="100%" y2="0%"><stop offset="30%" stop-color="#f48350" stop-opacity="1"></stop><stop offset="70%" stop-color="#d96162" stop-opacity="1"></stop></linearGradient></defs><defs><linearGradient id="grad2_3" x1="0%" y1="100%" x2="100%" y2="0%"><stop offset="30%" stop-color="#af4b6d" stop-opacity="1"></stop><stop offset="70%" stop-color="#d96162" stop-opacity="1"></stop></linearGradient></defs><defs><linearGradient id="grad2_4" x1="0%" y1="100%" x2="100%" y2="0%"><stop offset="30%" stop-color="#af4b6d" stop-opacity="1"></stop><stop offset="70%" stop-color="#7c3e6b" stop-opacity="1"></stop></linearGradient></defs><defs><linearGradient id="grad2_5" x1="0%" y1="100%" x2="100%" y2="0%"><stop offset="30%" stop-color="#49335c" stop-opacity="1"></stop><stop offset="70%" stop-color="#7c3e6b" stop-opacity="1"></stop></linearGradient></defs><defs><linearGradient id="grad2_6" x1="0%" y1="100%" x2="100%" y2="0%"><stop offset="30%" stop-color="#49335c" stop-opacity="1"></stop><stop offset="70%" stop-color="#1d2540" stop-opacity="1"></stop></linearGradient></defs><defs><linearGradient id="grad2_7" x1="0%" y1="100%" x2="100%" y2="0%"><stop offset="30%" stop-color="#001220" stop-opacity="1"></stop><stop offset="70%" stop-color="#1d2540" stop-opacity="1"></stop></linearGradient></defs><g transform="translate(450, 900)"><path d="M-450 0C-423.1 -69.5 -396.1 -139 -362 -209C-327.9 -279 -286.5 -349.5 -225 -389.7C-163.5 -430 -81.7 -440 0 -450L0 0Z" fill="#0c1c30"></path><path d="M-393.7 0C-370.2 -60.8 -346.6 -121.6 -316.7 -182.9C-286.9 -244.1 -250.7 -305.8 -196.9 -341C-143 -376.2 -71.5 -385 0 -393.7L0 0Z" fill="#312c4f"></path><path d="M-337.5 0C-317.3 -52.1 -297.1 -104.3 -271.5 -156.8C-245.9 -209.2 -214.9 -262.1 -168.8 -292.3C-122.6 -322.5 -61.3 -330 0 -337.5L0 0Z" fill="#623965"></path><path d="M-281.2 0C-264.4 -43.4 -247.6 -86.9 -226.2 -130.6C-204.9 -174.4 -179.1 -218.4 -140.6 -243.6C-102.2 -268.7 -51.1 -275 0 -281.2L0 0Z" fill="#96446e"></path><path d="M-225 0C-211.5 -34.8 -198.1 -69.5 -181 -104.5C-163.9 -139.5 -143.3 -174.7 -112.5 -194.9C-81.7 -215 -40.9 -220 0 -225L0 0Z" fill="#c55469"></path><path d="M-168.7 0C-158.6 -26.1 -148.5 -52.1 -135.7 -78.4C-122.9 -104.6 -107.4 -131 -84.4 -146.1C-61.3 -161.2 -30.7 -165 0 -168.7L0 0Z" fill="#e9705a"></path><path d="M-112.5 0C-105.8 -17.4 -99 -34.8 -90.5 -52.3C-82 -69.7 -71.6 -87.4 -56.3 -97.4C-40.9 -107.5 -20.4 -110 0 -112.5L0 0Z" fill="#fa9845"></path><path d="M-56.2 0C-52.9 -8.7 -49.5 -17.4 -45.2 -26.1C-41 -34.9 -35.8 -43.7 -28.1 -48.7C-20.4 -53.7 -10.2 -55 0 -56.2L0 0Z" fill="#fbae3c"></path></g><g transform="translate(0, 0)"><path d="M450 0C443.4 87.7 436.9 175.5 389.7 225C342.5 274.5 254.7 285.8 183 317C111.3 348.1 55.6 399 0 450L0 0Z" fill="#0c1c30"></path><path d="M393.8 0C388 76.8 382.3 153.5 341 196.9C299.7 240.2 222.9 250.1 160.1 277.3C97.4 304.6 48.7 349.2 0 393.8L0 0Z" fill="#312c4f"></path><path d="M337.5 0C332.6 65.8 327.7 131.6 292.3 168.7C256.9 205.9 191 214.4 137.3 237.7C83.5 261.1 41.7 299.3 0 337.5L0 0Z" fill="#623965"></path><path d="M281.3 0C277.2 54.8 273.1 109.7 243.6 140.6C214.1 171.6 159.2 178.6 114.4 198.1C69.5 217.6 34.8 249.4 0 281.3L0 0Z" fill="#96446e"></path><path d="M225 0C221.7 43.9 218.4 87.7 194.9 112.5C171.3 137.3 127.4 142.9 91.5 158.5C55.6 174 27.8 199.5 0 225L0 0Z" fill="#c55469"></path><path d="M168.8 0C166.3 32.9 163.8 65.8 146.1 84.4C128.4 102.9 95.5 107.2 68.6 118.9C41.7 130.5 20.9 149.6 0 168.8L0 0Z" fill="#e9705a"></path><path d="M112.5 0C110.9 21.9 109.2 43.9 97.4 56.2C85.6 68.6 63.7 71.5 45.8 79.2C27.8 87 13.9 99.8 0 112.5L0 0Z" fill="#fa9845"></path><path d="M56.3 0C55.4 11 54.6 21.9 48.7 28.1C42.8 34.3 31.8 35.7 22.9 39.6C13.9 43.5 7 49.9 0 56.3L0 0Z" fill="#fbae3c"></path></g></svg>