<svg id="visual" viewBox="0 0 1080 2224" width="1080" height="2224" xmlns="http://www.w3.org/2000/svg" xmlns:xlink="http://www.w3.org/1999/xlink" version="1.1"><rect x="0" y="0" width="1080" height="2224" fill="#001220"></rect><defs><linearGradient id="grad1_0" x1="0%" y1="100%" x2="100%" y2="0%"><stop offset="30%" stop-color="#fbae3c" stop-opacity="1"></stop><stop offset="70%" stop-color="#fbae3c" stop-opacity="1"></stop></linearGradient></defs><defs><linearGradient id="grad1_1" x1="0%" y1="100%" x2="100%" y2="0%"><stop offset="30%" stop-color="#fbae3c" stop-opacity="1"></stop><stop offset="70%" stop-color="#f48350" stop-opacity="1"></stop></linearGradient></defs><defs><linearGradient id="grad1_2" x1="0%" y1="100%" x2="100%" y2="0%"><stop offset="30%" stop-color="#d96162" stop-opacity="1"></stop><stop offset="70%" stop-color="#f48350" stop-opacity="1"></stop></linearGradient></defs><defs><linearGradient id="grad1_3" x1="0%" y1="100%" x2="100%" y2="0%"><stop offset="30%" stop-color="#d96162" stop-opacity="1"></stop><stop offset="70%" stop-color="#af4b6d" stop-opacity="1"></stop></linearGradient></defs><defs><linearGradient id="grad1_4" x1="0%" y1="100%" x2="100%" y2="0%"><stop offset="30%" stop-color="#7c3e6b" stop-opacity="1"></stop><stop offset="70%" stop-color="#af4b6d" stop-opacity="1"></stop></linearGradient></defs><defs><linearGradient id="grad1_5" x1="0%" y1="100%" x2="100%" y2="0%"><stop offset="30%" stop-color="#7c3e6b" stop-opacity="1"></stop><stop offset="70%" stop-color="#49335c" stop-opacity="1"></stop></linearGradient></defs><defs><linearGradient id="grad1_6" x1="0%" y1="100%" x2="100%" y2="0%"><stop offset="30%" stop-color="#1d2540" stop-opacity="1"></stop><stop offset="70%" stop-color="#49335c" stop-opacity="1"></stop></linearGradient></defs><defs><linearGradient id="grad1_7" x1="0%" y1="100%" x2="100%" y2="0%"><stop offset="30%" stop-color="#1d2540" stop-opacity="1"></stop><stop offset="70%" stop-color="#001220" stop-opacity="1"></stop></linearGradient></defs><defs><linearGradient id="grad2_0" x1="0%" y1="100%" x2="100%" y2="0%"><stop offset="30%" stop-color="#fbae3c" stop-opacity="1"></stop><stop offset="70%" stop-color="#fbae3c" stop-opacity="1"></stop></linearGradient></defs><defs><linearGradient id="grad2_1" x1="0%" y1="100%" x2="100%" y2="0%"><stop offset="30%" stop-color="#f48350" stop-opacity="1"></stop><stop offset="70%" stop-color="#fbae3c" stop-opacity="1"></stop></linearGradient></defs><defs><linearGradient id="grad2_2" x1="0%" y1="100%" x2="100%" y2="0%"><stop offset="30%" stop-color="#f48350" stop-opacity="1"></stop><stop offset="70%" stop-color="#d96162" stop-opacity="1"></stop></linearGradient></defs><defs><linearGradient id="grad2_3" x1="0%" y1="100%" x2="100%" y2="0%"><stop offset="30%" stop-color="#af4b6d" stop-opacity="1"></stop><stop offset="70%" stop-color="#d96162" stop-opacity="1"></stop></linearGradient></defs><defs><linearGradient id="grad2_4" x1="0%" y1="100%" x2="100%" y2="0%"><stop offset="30%" stop-color="#af4b6d" stop-opacity="1"></stop><stop offset="70%" stop-color="#7c3e6b" stop-opacity="1"></stop></linearGradient></defs><defs><linearGradient id="grad2_5" x1="0%" y1="100%" x2="100%" y2="0%"><stop offset="30%" stop-color="#49335c" stop-opacity="1"></stop><stop offset="70%" stop-color="#7c3e6b" stop-opacity="1"></stop></linearGradient></defs><defs><linearGradient id="grad2_6" x1="0%" y1="100%" x2="100%" y2="0%"><stop offset="30%" stop-color="#49335c" stop-opacity="1"></stop><stop offset="70%" stop-color="#1d2540" stop-opacity="1"></stop></linearGradient></defs><defs><linearGradient id="grad2_7" x1="0%" y1="100%" x2="100%" y2="0%"><stop offset="30%" stop-color="#001220" stop-opacity="1"></stop><stop offset="70%" stop-color="#1d2540" stop-opacity="1"></stop></linearGradient></defs><g transform="translate(1080, 2224)"><path d="M-1080 0C-1048.5 -186 -1017 -371.9 -931 -537.5C-844.9 -703.1 -704.3 -848.3 -540 -935.3C-375.7 -1022.3 -187.9 -1051.2 0 -1080L0 0Z" fill="#0c1c30"></path><path d="M-945 0C-917.5 -162.7 -889.9 -325.4 -814.6 -470.3C-739.3 -615.2 -616.2 -742.3 -472.5 -818.4C-328.8 -894.5 -164.4 -919.8 0 -945L0 0Z" fill="#312c4f"></path><path d="M-810 0C-786.4 -139.5 -762.8 -278.9 -698.2 -403.1C-633.7 -527.3 -528.2 -636.2 -405 -701.5C-281.8 -766.7 -140.9 -788.4 0 -810L0 0Z" fill="#623965"></path><path d="M-675 0C-655.3 -116.2 -635.7 -232.4 -581.9 -335.9C-528.1 -439.4 -440.2 -530.2 -337.5 -584.6C-234.8 -639 -117.4 -657 0 -675L0 0Z" fill="#96446e"></path><path d="M-540 0C-524.3 -93 -508.5 -186 -465.5 -268.8C-422.5 -351.5 -352.1 -424.1 -270 -467.7C-187.9 -511.2 -93.9 -525.6 0 -540L0 0Z" fill="#c55469"></path><path d="M-405 0C-393.2 -69.7 -381.4 -139.5 -349.1 -201.6C-316.8 -263.7 -264.1 -318.1 -202.5 -350.7C-140.9 -383.4 -70.5 -394.2 0 -405L0 0Z" fill="#e9705a"></path><path d="M-270 0C-262.1 -46.5 -254.3 -93 -232.7 -134.4C-211.2 -175.8 -176.1 -212.1 -135 -233.8C-93.9 -255.6 -47 -262.8 0 -270L0 0Z" fill="#fa9845"></path><path d="M-135 0C-131.1 -23.2 -127.1 -46.5 -116.4 -67.2C-105.6 -87.9 -88 -106 -67.5 -116.9C-47 -127.8 -23.5 -131.4 0 -135L0 0Z" fill="#fbae3c"></path></g><g transform="translate(0, 0)"><path d="M1080 0C1039.7 180.9 999.5 361.8 914.5 528C829.6 694.2 699.9 845.8 540 935.3C380.1 1024.9 190.1 1052.4 0 1080L0 0Z" fill="#0c1c30"></path><path d="M945 0C909.8 158.3 874.6 316.6 800.2 462C725.9 607.4 612.4 740 472.5 818.4C332.6 896.8 166.3 920.9 0 945L0 0Z" fill="#312c4f"></path><path d="M810 0C779.8 135.7 749.6 271.3 685.9 396C622.2 520.7 524.9 634.3 405 701.5C285.1 768.6 142.5 789.3 0 810L0 0Z" fill="#623965"></path><path d="M675 0C649.8 113.1 624.7 226.1 571.6 330C518.5 433.9 437.4 528.6 337.5 584.6C237.6 640.5 118.8 657.8 0 675L0 0Z" fill="#96446e"></path><path d="M540 0C519.9 90.4 499.7 180.9 457.3 264C414.8 347.1 349.9 422.9 270 467.7C190.1 512.4 95 526.2 0 540L0 0Z" fill="#c55469"></path><path d="M405 0C389.9 67.8 374.8 135.7 342.9 198C311.1 260.3 262.5 317.2 202.5 350.7C142.5 384.3 71.3 394.7 0 405L0 0Z" fill="#e9705a"></path><path d="M270 0C259.9 45.2 249.9 90.4 228.6 132C207.4 173.6 175 211.4 135 233.8C95 256.2 47.5 263.1 0 270L0 0Z" fill="#fa9845"></path><path d="M135 0C130 22.6 124.9 45.2 114.3 66C103.7 86.8 87.5 105.7 67.5 116.9C47.5 128.1 23.8 131.6 0 135L0 0Z" fill="#fbae3c"></path></g></svg>