<svg id="visual" viewBox="0 0 540 960" width="540" height="960" xmlns="http://www.w3.org/2000/svg" xmlns:xlink="http://www.w3.org/1999/xlink" version="1.1"><rect x="0" y="0" width="540" height="960" fill="#001220"></rect><defs><linearGradient id="grad1_0" x1="0%" y1="100%" x2="100%" y2="0%"><stop offset="30%" stop-color="#fbae3c" stop-opacity="1"></stop><stop offset="70%" stop-color="#fbae3c" stop-opacity="1"></stop></linearGradient></defs><defs><linearGradient id="grad1_1" x1="0%" y1="100%" x2="100%" y2="0%"><stop offset="30%" stop-color="#fbae3c" stop-opacity="1"></stop><stop offset="70%" stop-color="#f48350" stop-opacity="1"></stop></linearGradient></defs><defs><linearGradient id="grad1_2" x1="0%" y1="100%" x2="100%" y2="0%"><stop offset="30%" stop-color="#d96162" stop-opacity="1"></stop><stop offset="70%" stop-color="#f48350" stop-opacity="1"></stop></linearGradient></defs><defs><linearGradient id="grad1_3" x1="0%" y1="100%" x2="100%" y2="0%"><stop offset="30%" stop-color="#d96162" stop-opacity="1"></stop><stop offset="70%" stop-color="#af4b6d" stop-opacity="1"></stop></linearGradient></defs><defs><linearGradient id="grad1_4" x1="0%" y1="100%" x2="100%" y2="0%"><stop offset="30%" stop-color="#7c3e6b" stop-opacity="1"></stop><stop offset="70%" stop-color="#af4b6d" stop-opacity="1"></stop></linearGradient></defs><defs><linearGradient id="grad1_5" x1="0%" y1="100%" x2="100%" y2="0%"><stop offset="30%" stop-color="#7c3e6b" stop-opacity="1"></stop><stop offset="70%" stop-color="#49335c" stop-opacity="1"></stop></linearGradient></defs><defs><linearGradient id="grad1_6" x1="0%" y1="100%" x2="100%" y2="0%"><stop offset="30%" stop-color="#1d2540" stop-opacity="1"></stop><stop offset="70%" stop-color="#49335c" stop-opacity="1"></stop></linearGradient></defs><defs><linearGradient id="grad1_7" x1="0%" y1="100%" x2="100%" y2="0%"><stop offset="30%" stop-color="#1d2540" stop-opacity="1"></stop><stop offset="70%" stop-color="#001220" stop-opacity="1"></stop></linearGradient></defs><defs><linearGradient id="grad2_0" x1="0%" y1="100%" x2="100%" y2="0%"><stop offset="30%" stop-color="#fbae3c" stop-opacity="1"></stop><stop offset="70%" stop-color="#fbae3c" stop-opacity="1"></stop></linearGradient></defs><defs><linearGradient id="grad2_1" x1="0%" y1="100%" x2="100%" y2="0%"><stop offset="30%" stop-color="#f48350" stop-opacity="1"></stop><stop offset="70%" stop-color="#fbae3c" stop-opacity="1"></stop></linearGradient></defs><defs><linearGradient id="grad2_2" x1="0%" y1="100%" x2="100%" y2="0%"><stop offset="30%" stop-color="#f48350" stop-opacity="1"></stop><stop offset="70%" stop-color="#d96162" stop-opacity="1"></stop></linearGradient></defs><defs><linearGradient id="grad2_3" x1="0%" y1="100%" x2="100%" y2="0%"><stop offset="30%" stop-color="#af4b6d" stop-opacity="1"></stop><stop offset="70%" stop-color="#d96162" stop-opacity="1"></stop></linearGradient></defs><defs><linearGradient id="grad2_4" x1="0%" y1="100%" x2="100%" y2="0%"><stop offset="30%" stop-color="#af4b6d" stop-opacity="1"></stop><stop offset="70%" stop-color="#7c3e6b" stop-opacity="1"></stop></linearGradient></defs><defs><linearGradient id="grad2_5" x1="0%" y1="100%" x2="100%" y2="0%"><stop offset="30%" stop-color="#49335c" stop-opacity="1"></stop><stop offset="70%" stop-color="#7c3e6b" stop-opacity="1"></stop></linearGradient></defs><defs><linearGradient id="grad2_6" x1="0%" y1="100%" x2="100%" y2="0%"><stop offset="30%" stop-color="#49335c" stop-opacity="1"></stop><stop offset="70%" stop-color="#1d2540" stop-opacity="1"></stop></linearGradient></defs><defs><linearGradient id="grad2_7" x1="0%" y1="100%" x2="100%" y2="0%"><stop offset="30%" stop-color="#001220" stop-opacity="1"></stop><stop offset="70%" stop-color="#1d2540" stop-opacity="1"></stop></linearGradient></defs><g transform="translate(540, 960)"><path d="M-459 0C-438.8 -75.1 -418.5 -150.1 -382.8 -221C-347.1 -291.9 -295.9 -358.5 -229.5 -397.5C-163.1 -436.5 -81.6 -447.7 0 -459L0 0Z" fill="#0c1c30"></path><path d="M-401.6 0C-383.9 -65.7 -366.2 -131.4 -334.9 -193.4C-303.7 -255.4 -258.9 -313.7 -200.8 -347.8C-142.7 -381.9 -71.4 -391.8 0 -401.6L0 0Z" fill="#312c4f"></path><path d="M-344.2 0C-329.1 -56.3 -313.9 -112.6 -287.1 -165.8C-260.3 -218.9 -221.9 -268.9 -172.1 -298.1C-122.3 -327.4 -61.2 -335.8 0 -344.2L0 0Z" fill="#623965"></path><path d="M-286.9 0C-274.2 -46.9 -261.6 -93.8 -239.2 -138.1C-216.9 -182.4 -184.9 -224.1 -143.4 -248.4C-102 -272.8 -51 -279.8 0 -286.9L0 0Z" fill="#96446e"></path><path d="M-229.5 0C-219.4 -37.5 -209.3 -75.1 -191.4 -110.5C-173.5 -145.9 -147.9 -179.3 -114.8 -198.8C-81.6 -218.2 -40.8 -223.9 0 -229.5L0 0Z" fill="#c55469"></path><path d="M-172.1 0C-164.5 -28.1 -156.9 -56.3 -143.5 -82.9C-130.1 -109.5 -111 -134.5 -86.1 -149.1C-61.2 -163.7 -30.6 -167.9 0 -172.1L0 0Z" fill="#e9705a"></path><path d="M-114.7 0C-109.7 -18.8 -104.6 -37.5 -95.7 -55.3C-86.8 -73 -74 -89.6 -57.4 -99.4C-40.8 -109.1 -20.4 -111.9 0 -114.7L0 0Z" fill="#fa9845"></path><path d="M-57.4 0C-54.8 -9.4 -52.3 -18.8 -47.8 -27.6C-43.4 -36.5 -37 -44.8 -28.7 -49.7C-20.4 -54.6 -10.2 -56 0 -57.4L0 0Z" fill="#fbae3c"></path></g><g transform="translate(0, 0)"><path d="M459 0C411 59.1 363.1 118.1 330.8 191C298.6 263.9 282 350.5 229.5 397.5C177 444.5 88.5 451.7 0 459L0 0Z" fill="#0c1c30"></path><path d="M401.6 0C359.7 51.7 317.7 103.4 289.5 167.1C261.2 230.9 246.8 306.7 200.8 347.8C154.9 388.9 77.4 395.3 0 401.6L0 0Z" fill="#312c4f"></path><path d="M344.3 0C308.3 44.3 272.3 88.6 248.1 143.2C223.9 197.9 211.5 262.9 172.1 298.1C132.7 333.4 66.4 338.8 0 344.3L0 0Z" fill="#623965"></path><path d="M286.9 0C256.9 36.9 226.9 73.8 206.8 119.4C186.6 164.9 176.3 219.1 143.4 248.4C110.6 277.8 55.3 282.3 0 286.9L0 0Z" fill="#96446e"></path><path d="M229.5 0C205.5 29.5 181.5 59.1 165.4 95.5C149.3 131.9 141 175.3 114.8 198.8C88.5 222.2 44.2 225.9 0 229.5L0 0Z" fill="#c55469"></path><path d="M172.1 0C154.1 22.1 136.2 44.3 124.1 71.6C112 99 105.8 131.5 86.1 149.1C66.4 166.7 33.2 169.4 0 172.1L0 0Z" fill="#e9705a"></path><path d="M114.8 0C102.8 14.8 90.8 29.5 82.7 47.7C74.6 66 70.5 87.6 57.4 99.4C44.2 111.1 22.1 112.9 0 114.8L0 0Z" fill="#fa9845"></path><path d="M57.4 0C51.4 7.4 45.4 14.8 41.4 23.9C37.3 33 35.3 43.8 28.7 49.7C22.1 55.6 11.1 56.5 0 57.4L0 0Z" fill="#fbae3c"></path></g></svg>